<svg xmlns="http://www.w3.org/2000/svg" viewBox="0 0 192 192">
  <rect width="192" height="192" rx="40" fill="#2d2618"/>
  <!-- Crescent moon -->
  <path d="M96 28 C62 28 36 54 36 88 C36 122 62 148 96 148 C75 148 58 131 58 110 C58 89 75 72 96 72 C117 72 134 89 134 110 C134 131 117 148 96 148 C130 148 156 122 156 88 C156 54 130 28 96 28Z" fill="#c9973a" opacity="0.9"/>
  <!-- Stars -->
  <circle cx="130" cy="44" r="4" fill="#faf4e8"/>
  <circle cx="148" cy="68" r="2.5" fill="#faf4e8" opacity="0.7"/>
  <circle cx="118" cy="32" r="2" fill="#faf4e8" opacity="0.5"/>
  <!-- Center dot glow -->
  <circle cx="90" cy="90" r="8" fill="#c9973a" opacity="0.3"/>
  <circle cx="90" cy="90" r="4" fill="#faf4e8" opacity="0.8"/>
  <!-- Bottom text area -->
  <rect x="56" y="158" width="80" height="16" rx="8" fill="#c9973a" opacity="0.25"/>
</svg>
